<?xml version="1.0" encoding="UTF-8"?><svg xmlns="http://www.w3.org/2000/svg" viewBox="0 0 435.8 476.81"><defs><style>.d{fill:#fff;}.e{fill:#0a3148;}.f{fill:#fab615;}</style></defs><g id="a"/><g id="b"><g id="c"><g><path class="e" d="M62.98,209.62c-.16-2.08-.16-4.19,.15-6.35,.79-5.51,2.48-10.94,5.11-15.86,1.28-2.4,2.8-4.6,4.51-6.6,1.94-2.27,1.33-5.84-1.37-7.11l-.06-.03-60.94-28.14C5.64,143.35,0,146.42,0,151.2v68.83c0,2.41,1.52,4.62,3.93,5.7l34.14,15.29c4.8,2.15,10.42-1.05,10.29-5.86l-.39-13.97c-.14-4.92,5.73-8.11,10.54-5.74h0c1.99,.98,4.38-.35,4.36-2.39v-.07c-.01-1.12,.02-2.25,.1-3.37Z"/><path class="e" d="M189.85,226.87l-81.91-42.22c-5.2-2.68-11.34-3.25-16.8-1.16-3.36,1.28-6.39,3.41-8.87,6.91-4.66,6.58-6.03,15.18-5.19,23.08h0c.66,6.1,4.24,11.49,9.62,14.45l57.67,31.78c14.64,8.07,23.73,23.46,23.73,40.17v81.6c0,17.35-18.95,28.05-33.81,19.08l-82.12-48.3c-2.17-1.28-3.51-3.61-3.51-6.13v-26.87c0-2.72-1.55-5.21-4-6.4l-34.43-16.75c-4.72-2.3-10.22,1.14-10.22,6.4v71.78c0,2.59,1.4,4.97,3.66,6.22l166.94,92.57c19.72,10.94,43.94-3.33,43.94-25.88v-179.81c0-17.06-9.53-32.69-24.69-40.51Z"/><polygon class="f" points="41.99 279.37 41.99 251.21 36.36 248.47 36.36 257.37 10.4 242.8 10.4 235.86 4.42 232.96 4.42 260.13 22.04 292.67 41.99 279.37"/><path class="e" d="M411.02,83.53L260.14,4.89c-12.68-6.61-27.8-6.52-40.4,.23l-90.38,48.43c-10.63,5.7-11.16,20.74-.96,27.17h0c9.63,6.07,21.74,6.63,31.88,1.47l74.97-38.11c9.6-4.88,20.96-4.83,30.52,.13l59.9,31.08c13.22,6.86,13.48,25.67,.46,32.89l-101.85,56.52c-6.67,3.7-14.8,3.57-21.35-.34l-39.8-19.83c-7.18-3.58-14.95-5.81-22.94-6.6l-.7-.07c-8.5-.84-16.78,3.7-20.2,11.53-3.52,8.08-2.76,17.82,3.34,25.22,1.5,1.82,3.27,3.43,5.31,4.76,.05,.03,.11,.06,.16,.09l74.47,34.61s.08,.04,.11,.06c8.1,5.21,18.43,5.47,26.79,.67l182.09-104.72c10.37-5.97,10.06-21.04-.55-26.57Z"/><polygon class="e" points="61.44 124.47 60.79 146.55 87.71 160.24 113.39 142.06 114.44 124.47 87.91 140.32 61.44 124.47"/><polygon class="e" points="88.71 109.59 61.44 124.47 87.91 140.32 114.44 124.47 88.71 109.59"/><g><path class="e" d="M79.32,123.87s8.47,9.67,17.18,0"/><path class="d" d="M88.18,128.42h-.07c-5.11-.04-8.82-4.21-8.98-4.38l.38-.33s3.72,4.18,8.61,4.21h.06c2.88,0,5.62-1.42,8.14-4.22l.37,.33c-2.62,2.91-5.48,4.38-8.51,4.38Z"/></g><path class="e" d="M82.87,103.74v18.89s4.67,4.6,10.13,0v-18.89"/><circle class="e" cx="88.06" cy="90.76" r="14.29"/><path class="d" d="M88.31,124.73h-.07c-5.22-.04-9-4.29-9.16-4.47-.18-.21-.16-.52,.05-.71,.21-.18,.52-.16,.71,.05,.04,.04,3.65,4.1,8.42,4.13h.05c2.81,0,5.49-1.39,7.96-4.13,.19-.2,.5-.22,.71-.04,.21,.18,.22,.5,.04,.71-2.67,2.96-5.6,4.46-8.7,4.46Z"/><path class="f" d="M225.91,471.42l2.71-209.59c.16-12.42,6.89-23.82,17.68-29.97l181.88-103.51c3.4-1.94,7.62,.52,7.62,4.43v32.55c0,4.54-2.41,8.74-6.33,11.02l-147.47,85.99c-4.58,2.67-7.4,7.58-7.4,12.89v45.86c0,2.37,2.55,3.87,4.62,2.72l92.25-51.26c2.08-1.15,4.63,.35,4.63,2.72v29.56c0,5.8-3.12,11.15-8.16,14.02l-86.24,48.98c-4.54,2.58-7.34,7.4-7.34,12.62v68.88c0,3.81-2.21,7.28-5.67,8.89l-36.74,17.1c-2.83,1.32-6.07-.78-6.03-3.9Z"/></g></g></g></svg>